<svg width="768" height="373" viewBox="0 0 768 373" fill="none" xmlns="http://www.w3.org/2000/svg">
<path d="M268.852 93.2518C268.852 93.2518 257.052 83.477 258.065 59.2136C259.077 34.9502 286.03 32.2607 296.817 36.989C296.817 36.989 289.731 10.9616 313.662 2.28576C337.593 -6.39006 350.043 11.7135 353.412 21.8208C353.412 21.8208 374.971 -2.44255 400.247 9.68914C425.522 21.8208 433.258 46.7494 417.772 60.9054C402.286 75.0615 379.353 81.149 366.556 81.7997C353.759 82.4504 319.721 75.0615 313.055 64.6071C313.055 64.6071 312.375 81.1201 302.615 88.8705C292.855 96.6209 268.852 93.2518 268.852 93.2518Z" fill="#111111"/>
<path d="M362.507 74.3676C362.507 74.3676 367.568 119.511 354.092 141.75C340.615 163.989 327.804 168.038 306.577 167.69C285.35 167.343 271.541 144.786 269.85 123.892C269.204 115.681 268.982 107.443 269.185 99.2093C269.185 98.1682 269.185 97.1994 269.271 96.3174C269.488 90.4178 269.85 86.8752 269.85 86.8752" stroke="black" stroke-width="2" stroke-miterlimit="10"/>
<path d="M269.705 121.969C269.705 121.969 261.897 122.981 257.096 119.944C252.295 116.908 250.025 109.461 254.696 99.7007C259.366 89.9404 267.955 98.8187 267.955 98.8187" stroke="black" stroke-width="2" stroke-miterlimit="10" stroke-linecap="round"/>
<path d="M346.197 88.0608C347.156 87.8497 348.151 87.857 349.107 88.0823C350.063 88.3076 350.956 88.745 351.72 89.3622C352.457 89.9839 353.05 90.7588 353.457 91.6328C353.864 92.5068 354.075 93.4589 354.077 94.4231C354.077 94.5957 354.146 94.7612 354.268 94.8832C354.39 95.0052 354.555 95.0738 354.728 95.0738C354.9 95.0738 355.066 95.0052 355.188 94.8832C355.31 94.7612 355.379 94.5957 355.379 94.4231C355.387 93.2485 355.13 92.0872 354.625 91.0267C354.12 89.9661 353.381 89.034 352.463 88.3003C351.546 87.5667 350.474 87.0508 349.329 86.7914C348.183 86.532 346.993 86.5359 345.85 86.8028C345.025 86.9764 345.372 88.2488 346.197 88.0608Z" fill="#111111"/>
<path d="M322.887 84.9376C321.931 84.4957 320.926 84.1658 319.894 83.9543C318.825 83.8012 317.734 83.9053 316.713 84.2579C314.766 84.9404 312.951 85.9529 311.348 87.2511C310.698 87.7717 311.623 88.6971 312.274 88.1621C313.705 87.0118 315.324 86.1166 317.06 85.516C317.947 85.1895 318.905 85.1046 319.836 85.2701C320.769 85.4784 321.676 85.7887 322.54 86.1955C322.709 86.24 322.888 86.2164 323.04 86.1299C323.191 86.0433 323.303 85.9007 323.35 85.7328C323.387 85.5664 323.359 85.3923 323.274 85.245C323.188 85.0977 323.05 84.988 322.887 84.9376Z" fill="#111111"/>
<path d="M321.775 102.173C321.664 102.484 321.624 102.815 321.656 103.142C321.688 103.47 321.792 103.787 321.961 104.07C322.129 104.353 322.358 104.595 322.63 104.78C322.903 104.964 323.213 105.087 323.539 105.138C324.135 105.246 324.75 105.155 325.289 104.878C325.827 104.601 326.259 104.153 326.517 103.605C326.798 102.986 326.901 102.301 326.814 101.626C326.727 100.952 326.454 100.315 326.026 99.7876C324.898 98.5441 323.134 99.5418 322.324 100.568C321.847 101.076 321.528 101.711 321.407 102.397C321.286 103.083 321.369 103.789 321.644 104.429C321.786 104.733 321.988 105.005 322.238 105.229C322.488 105.452 322.78 105.623 323.098 105.73C323.416 105.836 323.752 105.878 324.087 105.85C324.421 105.823 324.746 105.728 325.042 105.572C325.622 105.176 326.098 104.646 326.428 104.026C326.758 103.407 326.932 102.716 326.937 102.014C326.954 101.667 326.902 101.32 326.784 100.993C326.666 100.666 326.483 100.366 326.248 100.11C326.012 99.8541 325.728 99.6478 325.412 99.5031C325.096 99.3584 324.754 99.2782 324.406 99.2671C323.706 99.3826 323.065 99.7309 322.588 100.256C322.11 100.781 321.824 101.451 321.775 102.159C321.564 102.868 321.591 103.627 321.852 104.319C322.113 105.011 322.594 105.598 323.221 105.991C323.542 106.14 323.898 106.2 324.251 106.167C324.604 106.134 324.942 106.009 325.23 105.803C325.762 105.369 326.158 104.792 326.373 104.14C326.665 103.436 326.76 102.667 326.648 101.913C326.628 101.541 326.491 101.184 326.258 100.894C326.024 100.603 325.705 100.393 325.346 100.294C324.952 100.276 324.56 100.358 324.206 100.533C323.852 100.707 323.548 100.968 323.322 101.291C322.823 101.791 322.468 102.415 322.295 103.099C322.242 103.271 322.224 103.451 322.242 103.63C322.26 103.809 322.314 103.983 322.4 104.14C322.487 104.298 322.604 104.437 322.745 104.549C322.885 104.66 323.047 104.743 323.221 104.791C323.572 104.844 323.93 104.818 324.27 104.715C324.61 104.613 324.924 104.436 325.187 104.198C325.447 103.996 325.662 103.743 325.819 103.454C325.976 103.165 326.071 102.847 326.098 102.519C326.126 102.191 326.084 101.862 325.977 101.551C325.87 101.24 325.7 100.955 325.476 100.713C325.218 100.492 324.893 100.362 324.554 100.344C324.214 100.325 323.877 100.42 323.597 100.612C323.118 100.984 322.756 101.486 322.555 102.058C322.378 102.372 322.317 102.738 322.383 103.092C322.45 103.447 322.638 103.767 322.917 103.995C323.177 104.151 323.474 104.233 323.777 104.233C324.08 104.233 324.378 104.151 324.638 103.995C324.921 103.805 325.158 103.553 325.328 103.257C325.499 102.961 325.599 102.63 325.621 102.289C325.722 101.653 325.823 100.843 325.259 100.366C325.104 100.24 324.915 100.165 324.716 100.149C324.517 100.134 324.318 100.179 324.146 100.279C323.829 100.485 323.582 100.783 323.437 101.132C323.08 101.793 322.845 102.513 322.743 103.258C322.682 103.459 322.661 103.67 322.684 103.879C322.706 104.087 322.771 104.29 322.874 104.473C322.996 104.636 323.166 104.757 323.36 104.819C323.555 104.881 323.764 104.881 323.958 104.82C324.294 104.705 324.599 104.516 324.849 104.265C325.1 104.014 325.29 103.709 325.404 103.374C325.684 102.738 325.76 102.03 325.621 101.349C325.577 101.182 325.468 101.04 325.319 100.953C325.17 100.866 324.992 100.842 324.826 100.887C324.218 101.147 323.539 101.581 323.683 102.333C323.709 102.488 323.771 102.636 323.865 102.763C323.958 102.89 324.08 102.993 324.222 103.063C324.363 103.134 324.519 103.17 324.676 103.169C324.834 103.167 324.989 103.128 325.129 103.056C325.838 102.607 325.129 101.479 324.464 101.928C324.539 101.888 324.624 101.874 324.707 101.887C324.791 101.9 324.868 101.939 324.927 102C324.927 102 324.927 102.318 324.927 102.289L325.187 102.13L324.377 101.682C324.423 101.951 324.414 102.226 324.352 102.492C324.29 102.757 324.176 103.008 324.016 103.229C323.956 103.308 323.888 103.381 323.813 103.446H323.712C323.734 103.433 323.759 103.427 323.784 103.427C323.81 103.427 323.835 103.433 323.857 103.446C323.857 103.446 324.132 103.619 324.059 103.648C324.067 103.542 324.067 103.436 324.059 103.33C324.102 103.072 324.16 102.816 324.233 102.564C324.375 102.114 324.569 101.682 324.811 101.277C324.811 101.378 324.377 101.277 324.493 101.277C324.377 101.205 324.377 101.06 324.392 101.277C324.392 101.277 324.406 101.494 324.392 101.277C324.4 101.325 324.4 101.374 324.392 101.422C324.384 101.547 324.384 101.672 324.392 101.798C324.382 102.145 324.261 102.48 324.045 102.752C323.958 102.752 324.045 102.752 324.045 102.752C324.045 102.752 324.045 102.752 323.958 102.752C323.784 102.752 323.871 102.752 323.958 102.752C324.132 102.752 323.741 102.752 323.784 102.752C323.784 102.752 323.828 102.752 323.784 102.752C323.784 102.752 323.784 102.839 323.784 102.752C323.784 102.665 323.784 102.752 323.784 102.752C323.832 102.559 323.895 102.371 323.972 102.188C324.074 101.879 324.272 101.611 324.536 101.422C324.536 101.422 324.609 101.422 324.652 101.422C324.695 101.422 324.797 101.523 324.739 101.422C324.801 101.472 324.85 101.537 324.883 101.61C324.931 101.724 324.955 101.847 324.956 101.971C324.958 102.12 324.928 102.268 324.869 102.405C324.775 102.624 324.628 102.817 324.441 102.966C324.255 103.115 324.034 103.215 323.799 103.258H323.597C323.597 103.359 323.597 103.084 323.597 103.171C323.598 103.21 323.598 103.248 323.597 103.287L323.683 103.113C323.742 102.985 323.814 102.864 323.9 102.752C324.128 102.37 324.434 102.04 324.797 101.783C324.797 101.783 325.014 101.653 325.086 101.667C325.158 101.682 325.259 101.884 325.303 101.986C325.398 102.418 325.4 102.865 325.31 103.299C325.221 103.732 325.041 104.142 324.782 104.501C324.719 104.636 324.621 104.751 324.499 104.834C324.376 104.917 324.233 104.966 324.085 104.975C323.937 104.984 323.789 104.953 323.657 104.885C323.526 104.816 323.415 104.714 323.336 104.588C323.111 104.199 322.976 103.765 322.941 103.317C322.906 102.869 322.972 102.419 323.134 102C323.221 101.582 323.438 101.202 323.756 100.915C323.873 100.811 324.01 100.731 324.16 100.682C324.309 100.632 324.466 100.613 324.623 100.626C325.346 100.742 325.664 101.581 325.592 102.304C325.557 102.709 325.442 103.102 325.253 103.462C325.064 103.822 324.806 104.141 324.493 104.4C324.376 104.497 324.238 104.565 324.09 104.6C323.942 104.635 323.788 104.636 323.64 104.603C323.329 104.52 323.061 104.324 322.888 104.053C322.688 103.732 322.588 103.358 322.601 102.979C322.614 102.601 322.739 102.235 322.96 101.928C323.293 101.349 324.03 100.482 324.768 100.554C325.028 100.554 325.216 100.93 325.317 101.176C325.458 101.544 325.522 101.938 325.505 102.333C325.479 102.676 325.37 103.009 325.187 103.301C325.036 103.536 324.82 103.722 324.565 103.836H324.334H324.189H323.828C323.611 103.836 323.828 103.836 323.756 103.836H323.539C323.409 103.836 323.539 103.836 323.539 103.836H323.423H323.307C323.307 103.836 323.148 103.663 323.206 103.735C323.094 103.592 323.023 103.42 323 103.24C322.977 103.059 323.003 102.875 323.076 102.708C323.121 102.542 323.099 102.364 323.016 102.213C322.932 102.062 322.793 101.949 322.628 101.899C322.459 101.858 322.281 101.883 322.131 101.969C321.98 102.055 321.868 102.196 321.818 102.361L321.775 102.173Z" fill="#111111"/>
<path d="M346.89 103.692C346.703 104.427 346.703 105.198 346.89 105.933C346.992 106.277 347.187 106.587 347.455 106.826C347.722 107.065 348.052 107.224 348.405 107.286C348.759 107.347 349.122 107.309 349.455 107.175C349.788 107.04 350.077 106.816 350.288 106.526C350.717 105.949 350.951 105.249 350.954 104.53C350.985 103.954 350.833 103.382 350.52 102.896C350.323 102.603 350.036 102.382 349.701 102.267C349.367 102.152 349.005 102.15 348.669 102.26C348.319 102.392 348.006 102.604 347.754 102.881C347.503 103.158 347.321 103.49 347.223 103.851C346.969 104.525 346.914 105.257 347.064 105.962C347.155 106.321 347.364 106.639 347.658 106.865C347.952 107.09 348.313 107.21 348.683 107.205C349.034 107.146 349.365 107.001 349.648 106.785C349.93 106.568 350.155 106.285 350.303 105.962C350.606 105.4 350.747 104.763 350.708 104.126C350.682 103.445 350.409 102.798 349.941 102.304C349.657 102.047 349.283 101.914 348.901 101.933C348.519 101.952 348.16 102.122 347.903 102.405C347.46 102.985 347.203 103.686 347.165 104.415C347.086 105.102 347.255 105.794 347.642 106.367C347.746 106.523 347.882 106.656 348.042 106.756C348.201 106.855 348.38 106.919 348.566 106.944C348.753 106.969 348.942 106.953 349.122 106.899C349.302 106.844 349.468 106.751 349.609 106.627C349.854 106.404 350.05 106.133 350.187 105.832C350.374 105.487 350.492 105.108 350.534 104.718C350.559 104.367 350.478 104.015 350.299 103.711C350.121 103.406 349.855 103.163 349.537 103.012C349.198 102.887 348.824 102.893 348.49 103.03C348.155 103.166 347.884 103.423 347.729 103.75C347.596 104.083 347.591 104.455 347.717 104.792C347.843 105.129 348.089 105.407 348.409 105.571C348.737 105.733 349.114 105.764 349.464 105.658C349.63 105.608 349.769 105.495 349.852 105.344C349.936 105.193 349.958 105.015 349.913 104.848C349.865 104.684 349.755 104.545 349.607 104.462C349.458 104.378 349.282 104.356 349.117 104.4C348.929 104.4 349.117 104.4 349.117 104.4H349.016C349.016 104.4 349.161 104.4 349.016 104.4C349.016 104.4 349.146 104.487 349.016 104.4H348.929C348.929 104.4 349.059 104.487 348.929 104.4C348.929 104.4 349.03 104.4 348.929 104.4C348.828 104.4 348.929 104.473 348.929 104.4C348.929 104.313 348.929 104.328 348.929 104.4C348.929 104.256 348.929 104.473 348.929 104.4V104.313C348.843 104.4 348.929 104.313 348.929 104.313C348.814 104.313 348.929 104.313 348.929 104.313C348.929 104.313 349.045 104.458 348.929 104.313C348.925 104.347 348.925 104.381 348.929 104.415C348.929 104.415 349.002 104.545 348.929 104.415C348.923 104.458 348.923 104.502 348.929 104.545C348.929 104.444 348.929 104.545 348.929 104.545V104.733C348.929 104.733 348.929 104.834 348.929 104.733C348.892 104.901 348.829 105.062 348.741 105.21L348.568 105.499C348.568 105.499 348.452 105.658 348.568 105.586L348.467 105.687C348.467 105.687 348.539 105.687 348.467 105.687C348.38 105.687 348.64 105.687 348.467 105.687C348.322 105.571 348.467 105.687 348.467 105.687V105.6C348.351 105.499 348.467 105.6 348.467 105.6C348.467 105.6 348.467 105.47 348.365 105.412C348.264 105.355 348.365 105.311 348.365 105.282C348.365 105.253 348.365 105.008 348.365 105.094C348.322 104.841 348.322 104.582 348.365 104.328C348.365 104.328 348.365 104.429 348.365 104.328C348.372 104.275 348.372 104.222 348.365 104.169C348.392 104.051 348.426 103.935 348.467 103.822C348.467 103.822 348.467 103.721 348.467 103.663C348.467 103.605 348.467 103.663 348.467 103.663L348.553 103.489C348.553 103.489 348.669 103.316 348.553 103.417C348.438 103.518 348.553 103.345 348.626 103.316C348.626 103.316 348.698 103.287 348.626 103.316C348.626 103.316 348.741 103.316 348.626 103.316C348.51 103.316 348.626 103.316 348.626 103.316C348.659 103.309 348.693 103.309 348.727 103.316C348.781 103.399 348.829 103.486 348.871 103.576C348.871 103.475 348.871 103.692 348.871 103.735C348.878 103.822 348.878 103.909 348.871 103.995C348.871 103.995 348.871 104.212 348.871 103.995C348.878 104.058 348.878 104.121 348.871 104.183V104.487C348.871 104.487 348.871 104.487 348.871 104.603C348.871 104.603 348.871 104.718 348.871 104.603C348.88 104.694 348.88 104.786 348.871 104.877V105.008C348.871 104.906 348.871 105.196 348.871 105.008C348.829 105.097 348.781 105.184 348.727 105.268V105.369C348.626 105.528 348.799 105.369 348.727 105.369C348.672 105.443 348.609 105.511 348.539 105.571C348.365 105.658 348.539 105.571 348.539 105.571C348.712 105.485 348.365 105.571 348.452 105.571C348.293 105.571 348.539 105.571 348.452 105.571H348.336C348.336 105.571 348.467 105.571 348.336 105.571C348.206 105.412 348.336 105.571 348.336 105.571C348.344 105.538 348.344 105.504 348.336 105.47C348.274 105.074 348.304 104.668 348.423 104.285C348.45 104.172 348.484 104.061 348.524 103.952C348.524 103.952 348.597 103.764 348.524 103.952C348.519 103.904 348.519 103.855 348.524 103.807C348.545 103.767 348.569 103.728 348.597 103.692C348.683 103.547 348.597 103.692 348.597 103.619L348.683 103.533C348.611 103.605 348.683 103.533 348.756 103.533C348.828 103.533 348.944 103.446 348.756 103.533H348.871H349.016C348.9 103.46 349.103 103.533 349.016 103.533H349.103C348.958 103.446 349.103 103.533 349.103 103.533C349.103 103.417 349.103 103.533 349.103 103.533V103.619C349.103 103.619 349.19 103.793 349.103 103.619C349.016 103.446 349.103 103.692 349.103 103.721C349.109 103.807 349.109 103.894 349.103 103.981C349.103 103.981 349.103 104.053 349.103 104.082C349.103 104.111 349.103 104.082 349.103 104.154C349.11 104.251 349.11 104.347 349.103 104.444C349.096 104.501 349.096 104.56 349.103 104.617C349.103 104.617 349.103 104.617 349.103 104.718C349.103 104.718 349.103 104.82 349.103 104.718C349.069 104.924 349.005 105.123 348.915 105.311C348.923 105.359 348.923 105.408 348.915 105.456V105.543L348.828 105.644H348.756C348.708 105.686 348.655 105.72 348.597 105.745C348.495 105.745 348.597 105.745 348.524 105.745H348.409C348.336 105.745 348.336 105.745 348.409 105.745H348.308C348.163 105.745 348.308 105.745 348.308 105.745H348.134L348.047 105.658C347.946 105.557 348.047 105.658 348.047 105.658L347.946 105.499C347.859 105.355 347.946 105.6 347.946 105.499C347.87 105.286 347.836 105.06 347.845 104.834C347.829 104.56 347.829 104.284 347.845 104.01C347.891 103.843 347.869 103.665 347.783 103.514C347.698 103.364 347.556 103.253 347.389 103.207C347.222 103.161 347.044 103.183 346.894 103.269C346.743 103.354 346.633 103.496 346.587 103.663L346.89 103.692Z" fill="#111111"/>
<path d="M335.279 108.926C335.896 114.113 336.195 119.333 336.176 124.557C336.202 125.737 335.981 126.909 335.525 127.998C335.267 128.598 334.823 129.098 334.257 129.424C333.691 129.75 333.035 129.884 332.387 129.806C329.77 129.712 327.206 129.035 324.883 127.825C324.145 127.449 323.437 128.562 324.232 128.953C326.707 130.235 329.43 130.97 332.214 131.107C333.346 131.238 334.487 130.938 335.409 130.269C336.303 129.456 336.92 128.384 337.174 127.203C337.622 124.331 337.666 121.411 337.304 118.527C337.149 115.317 336.908 112.117 336.581 108.926C336.494 108.102 335.135 108.087 335.279 108.926Z" fill="#111111"/>
<path d="M315.354 133.652C316.419 136.465 318.335 138.876 320.835 140.55C322.018 141.297 323.389 141.694 324.789 141.694C326.189 141.694 327.56 141.297 328.744 140.55C329.424 140.058 328.744 138.93 328.093 139.422C327.052 140.087 325.836 140.424 324.601 140.391C323.367 140.357 322.17 139.954 321.167 139.234C319.036 137.643 317.406 135.475 316.468 132.987C316.121 132.235 315.022 132.886 315.354 133.652Z" fill="#111111"/>
<path d="M361.075 127.275C370.706 127.275 378.514 118.601 378.514 107.899C378.514 97.1984 370.706 88.5234 361.075 88.5234C351.445 88.5234 343.637 97.1984 343.637 107.899C343.637 118.601 351.445 127.275 361.075 127.275Z" stroke="#111111" stroke-width="2" stroke-miterlimit="10"/>
<path d="M317.046 121.636C327.475 121.636 335.93 112.961 335.93 102.26C335.93 91.5591 327.475 82.8842 317.046 82.8842C306.616 82.8842 298.161 91.5591 298.161 102.26C298.161 112.961 306.616 121.636 317.046 121.636Z" stroke="#111111" stroke-width="2" stroke-miterlimit="10"/>
<path d="M275.683 233.13C275.683 233.13 276.912 234.461 263.942 229.125C250.972 223.789 217.527 204.332 207 172C196.473 139.668 273.296 127.849 270 128.5" stroke="#111111" stroke-width="2" stroke-miterlimit="10"/>
<path d="M264.285 170.58C259.947 162.165 276.923 148.009 277.429 147.445" stroke="#111111" stroke-width="2" stroke-miterlimit="10"/>
<path d="M354.511 228.696C354.511 228.696 362.174 228.363 374.639 195.337C387.103 162.311 354.511 141.041 354.511 141.041" stroke="#111111" stroke-width="2" stroke-miterlimit="10"/>
<path d="M265.236 160.967C265.367 160.735 288.56 176.8 304.726 193.486C320.892 210.173 319.894 209.652 320.906 210.158C321.918 210.665 330.667 198.374 333.197 182.193C335.728 166.013 335.54 161.95 335.54 161.95C335.54 161.95 341.96 164.003 342.292 180.343C342.625 196.682 335.221 220.063 331.679 236.417C328.136 252.771 332.026 319.994 332.026 319.994H324.275C324.275 319.994 310.799 250.429 294.112 221.784C277.426 193.139 263.284 172.129 263.284 172.129C263.284 172.129 261.679 167.083 263.284 164.292C264.889 161.502 265.236 160.967 265.236 160.967Z" fill="black"/>
<path d="M214.201 185.37C212.986 186.324 204.397 190.561 196.314 196.273L188.231 202.057C188.231 202.057 213.666 216.198 234.213 224.787C254.761 233.376 278.865 234.041 278.865 234.041C278.865 234.041 243.149 216.878 228.661 203.907C214.172 190.937 214.201 185.37 214.201 185.37Z" fill="black"/>
<path d="M376.59 191.491C378.036 192.041 386.293 209.985 386.293 209.985C386.293 209.985 363.635 228.118 359.398 229.723C357.216 230.703 354.749 230.842 352.472 230.113C352.472 230.113 367.293 214.135 371.486 203.927L376.59 191.491Z" fill="black"/>
<path d="M384.08 207.108C385.208 209.522 399.567 237.791 406.985 249.576C414.402 261.36 422.485 273.839 426.52 275.531" stroke="black" stroke-width="2" stroke-miterlimit="10"/>
<path d="M381.203 300.286C381.203 300.286 383.227 278.596 396.371 275.531C409.515 272.465 410.527 275.531 410.527 275.531" stroke="black" stroke-width="2" stroke-miterlimit="10" stroke-linecap="round"/>
<path d="M388.954 316.972C388.954 316.972 388.622 297.423 399.568 290.685C405.646 286.777 412.48 284.196 419.623 283.108" stroke="black" stroke-width="2" stroke-miterlimit="10" stroke-linecap="round"/>
<path d="M164.742 371.124H139.958C139.958 371.124 135.62 368.348 123.792 354.958C111.964 341.568 105.587 319.575 125.802 276.876C146.016 234.176 187.342 203.319 189.294 201.945" stroke="black" stroke-width="2" stroke-miterlimit="10"/>
<path d="M157.309 316.726C156.051 317.233 139.871 316.726 137.355 328.294C134.839 339.862 155.791 345.472 155.791 345.472" stroke="black" stroke-width="2" stroke-miterlimit="10"/>
<path d="M229.42 272.321C236.116 275.025 241.597 280.079 244.834 286.535C249.895 296.83 248.637 297.842 248.637 297.842" stroke="black" stroke-width="2" stroke-miterlimit="10"/>
<path d="M219.819 293.547C220.325 294.56 246.353 299.201 266.567 300.04C286.782 300.879 311.045 304.161 313.822 311.246L316.612 318.317" stroke="black" stroke-width="2" stroke-miterlimit="10"/>
<path d="M283.254 226.339C283.254 226.339 297.366 251.094 302.442 270.296L307.502 289.513" stroke="black" stroke-width="2" stroke-miterlimit="10" stroke-linecap="round"/>
<path d="M345.416 226.339C345.416 226.585 341.468 239.222 342.307 260.189C343.146 281.156 343.637 283.108 343.637 283.108" stroke="black" stroke-width="2" stroke-miterlimit="10"/>
<path d="M205.764 169.223H140.985C140.985 169.223 95.2485 175.802 92.2408 217.75V371.124" stroke="black" stroke-width="2" stroke-miterlimit="10"/>
<path d="M1 369.606L140.739 371.052" stroke="black" stroke-width="2" stroke-miterlimit="10"/>
<path d="M154.418 311.507V361.667C154.418 361.667 158.467 372.021 166.174 372.021H203.581C205.822 371.399 207.81 370.086 209.261 368.269C210.713 366.451 211.554 364.222 211.664 361.899V311.507H154.418Z" fill="black"/>
<path d="M205.041 371.052H302.441H304.726" stroke="black" stroke-width="2" stroke-miterlimit="10"/>
<path d="M313.821 311.246C313.821 311.246 305.232 313.647 303.844 336.768C302.456 359.889 302.398 371.052 302.398 371.052V372.006H478.807V354.076L322.006 354.582C322.006 354.582 319.114 333.731 321.499 327.658L323.018 322.857L313.821 311.246Z" fill="black"/>
<path d="M320.401 323.248C332.266 321.452 344.349 321.662 356.145 323.87C373.583 327.542 392.294 336.883 395.866 342.58C399.437 348.278 396.835 356.346 396.835 356.346" stroke="black" stroke-width="2" stroke-miterlimit="10" stroke-linecap="round"/>
<path d="M371.689 339.182C372.831 339.544 388.231 344.692 390.631 349.521C393.031 354.351 388.954 358.11 388.954 358.11" stroke="black" stroke-width="2" stroke-miterlimit="10" stroke-linecap="round"/>
<path d="M366.758 343.578C367.395 343.578 380.162 349.362 380.408 355.146" stroke="black" stroke-width="2" stroke-miterlimit="10" stroke-linecap="round"/>
<path d="M361.075 347.757C361.451 347.887 370.055 351.676 369.664 356.346" stroke="black" stroke-width="2" stroke-miterlimit="10" stroke-linecap="round"/>
<path d="M432.593 121.058H703.987C703.987 121.058 709.67 120.841 710.176 127.912C710.682 134.983 710.176 308.846 710.176 308.846C710.304 309.621 710.274 310.413 710.086 311.176C709.898 311.938 709.557 312.655 709.084 313.281C708.61 313.907 708.014 314.431 707.332 314.819C706.65 315.208 705.895 315.453 705.115 315.541H638.152L650.284 366.454C650.284 366.454 650.92 371.76 645.946 372.512C640.972 373.264 486.369 372.512 486.369 372.512V354.582H573.546L572.924 317.435H434.617C432.636 317.366 430.741 316.605 429.262 315.284C427.783 313.963 426.813 312.166 426.52 310.205C425.074 302.975 426.52 129.025 426.52 129.025C426.539 127.954 426.772 126.898 427.207 125.92C427.642 124.941 428.269 124.06 429.05 123.328C430.101 122.385 431.297 121.619 432.593 121.058Z" fill="black"/>
<path d="M449.266 121.882C449.266 121.882 438.912 122.113 438.912 137.788V310.162C438.912 310.162 440.431 316.293 448.008 316.293" stroke="white" stroke-miterlimit="10"/>
<path d="M638.152 315.541L619.079 221.958H564.827L571.912 317.392" stroke="white" stroke-miterlimit="10"/>
<path d="M588.252 354.018L573.604 222.796" stroke="white" stroke-miterlimit="10"/>
<path d="M591.5 283.5C591.5 283.5 591.315 266.879 606.642 267.717C621.969 268.556 620.784 284.404 619.106 288.944C617.429 293.484 612.589 297.296 604 295.778C595.411 294.259 591.5 283.5 591.5 283.5Z" stroke="white" stroke-miterlimit="10"/>
<path d="M411.8 343.578C411.8 343.578 401.056 322.857 412.566 310.104C424.076 297.351 427.474 298.233 427.474 298.233L432.043 313.386C432.043 313.386 423.454 314.832 420.678 328.931C417.902 343.029 417.381 347.728 417.381 347.728C417.381 347.728 412.378 344.937 411.8 343.578Z" fill="black"/>
<path d="M458.621 316.972C458.751 317.435 461.267 336.001 460.645 341.626C460.023 347.251 459.879 348.003 460.009 347.251C460.139 346.499 465.185 340.021 467.239 332.083C468.459 326.228 468.8 320.224 468.251 314.268" fill="black"/>
<path d="M430.323 332.719C430.323 332.719 431.451 347.251 431.075 355.71" stroke="black" stroke-width="2" stroke-miterlimit="10" stroke-linecap="round"/>
<path d="M438.912 330.883C438.912 330.883 440.17 342.45 440.546 350.533C440.922 358.616 440.546 360.395 440.546 360.395" stroke="black" stroke-width="2" stroke-miterlimit="10" stroke-linecap="round"/>
<path d="M448.759 329.957C449.121 330.246 450.885 345.762 449.916 352.138C449.316 355.397 449.228 358.729 449.656 362.014" stroke="black" stroke-width="2" stroke-miterlimit="10" stroke-linecap="round"/>
<path d="M461.267 335.871C461.267 335.871 460.067 349.738 458.809 354.235" stroke="black" stroke-miterlimit="10"/>
<path d="M416.341 343.202C416.833 348.141 417.941 352.998 419.638 357.662" stroke="black" stroke-miterlimit="10"/>
<path d="M466.197 324.52C466.833 324.651 470.535 340.195 470.116 349.348C469.696 358.501 469.61 360.916 469.61 360.916" stroke="black" stroke-width="2" stroke-miterlimit="10"/>
<path d="M559.333 50.8271H523.95V58.1582H559.333V50.8271Z" fill="black"/>
<path d="M562.47 50.8416V58.1726H566.013V50.8416H562.47Z" fill="black"/>
<path d="M607.975 50.8271H570.192V58.1582H607.975V50.8271Z" fill="black"/>
<path d="M585.866 63.465H523.95V71.6781H585.866V63.465Z" fill="black"/>
<path d="M634.494 63.465H592.676V71.172H634.494V63.465Z" fill="black"/>
<path d="M642.722 63.465H638.167V71.172H642.722V63.465Z" fill="black"/>
<path d="M593.385 74.9603H536.11V81.366H593.385V74.9603Z" fill="black"/>
<path d="M630.966 74.9603H600.384V81.366H630.966V74.9603Z" fill="black"/>
<path d="M562.485 85.3278H523.95V91.8925H562.485V85.3278Z" fill="black"/>
<path d="M644.355 371.471H768" stroke="black" stroke-width="2" stroke-miterlimit="10"/>
</svg>
