<svg aria-hidden="true" style="position: absolute; width: 0; height: 0; overflow: hidden;" version="1.1" xmlns="http://www.w3.org/2000/svg" xmlns:xlink="http://www.w3.org/1999/xlink">
<defs>
<symbol id="icon-burger-menu" viewBox="0 0 45 32">
<path  d="M0 5.756v-5.131h45.176v5.131h-45.176zM0 18.583h45.176v-5.131h-45.176v5.131zM0 31.409h45.176v-5.129h-45.176v5.129z"></path>
</symbol>
<symbol id="icon-close-modal" viewBox="0 0 32 32">
<path d="M21.333 11.741l-1.074-1.074-4.259 4.259-4.259-4.259-1.074 1.074 4.259 4.259-4.259 4.259 1.074 1.074 4.259-4.259 4.259 4.259 1.074-1.074-4.259-4.259 4.259-4.259z"></path>
</symbol>
<symbol id="icon-cloud" viewBox="0 0 32 32">
<path fill="#1575bb" style="fill: var(--color2, #1575bb)" d="M25.984 8.696c-1.389-2.479-4.123-3.902-7.055-3.433-1.133-2.354-3.5-3.95-6.239-3.95-0.009 0-0.019 0-0.028 0h0.001c-3.832 0-6.95 3.118-6.95 6.951 0 0.158 0.006 0.321 0.021 0.491-3.307 0.754-5.734 3.74-5.734 7.179 0 4.064 3.307 7.37 7.37 7.37h5.826v-1.217h-5.825c-3.393 0-6.153-2.76-6.153-6.153 0-3.036 2.267-5.652 5.274-6.082 0.162-0.023 0.307-0.11 0.403-0.241 0.097-0.13 0.138-0.295 0.113-0.456-0.046-0.266-0.074-0.573-0.078-0.887l-0-0.003c0-3.162 2.573-5.734 5.734-5.734 2.374 0 4.468 1.431 5.337 3.646 0.109 0.28 0.407 0.439 0.703 0.37 2.673-0.618 5.184 0.673 6.343 2.975 0.088 0.178 0.261 0.3 0.457 0.328 3.009 0.428 5.281 3.044 5.281 6.084 0 3.392-2.761 6.152-6.155 6.152h-7.756v1.217h7.756c4.065 0 7.37-3.306 7.37-7.37 0-3.536-2.565-6.593-6.016-7.237z"></path>
<path fill="#d91a5d" style="fill: var(--color3, #d91a5d)" d="M18.814 15.628c0.113-0.112 0.183-0.268 0.183-0.44s-0.070-0.327-0.183-0.44l-3.473-3.473c-0.112-0.112-0.267-0.181-0.438-0.181-0.001 0-0.001 0-0.002 0h0l-0.011 0.002c-0.003 0-0.006-0.002-0.009-0.002-0.161 0-0.32 0.063-0.439 0.181l-3.474 3.474c-0.112 0.112-0.182 0.268-0.182 0.439 0 0.343 0.278 0.621 0.621 0.621 0.172 0 0.327-0.070 0.439-0.182l2.411-2.41v16.846c0 0.344 0.279 0.622 0.622 0.622s0.622-0.279 0.622-0.622v0-16.867l2.431 2.432c0.112 0.113 0.268 0.183 0.44 0.183s0.327-0.070 0.44-0.183l0-0z"></path>
</symbol>
<symbol id="icon-device" viewBox="0 0 32 32">
<path fill="#1575bb" style="fill: var(--color2, #1575bb)" d="M17.26 20.864c0.005 0 0.012 0 0.018 0 0.282 0 0.511-0.229 0.511-0.511s-0.229-0.511-0.511-0.511c-0.006 0-0.013 0-0.019 0l0.001-0h-16.164c-0.041-0.001-0.074-0.035-0.075-0.076v-18.67c0-0.041 0.035-0.076 0.075-0.076h24.632c0.040 0 0.075 0.035 0.075 0.075v8.988c0 0.282 0.229 0.511 0.511 0.511s0.511-0.229 0.511-0.511v-8.986c0 0 0 0 0 0 0-0.606-0.491-1.097-1.096-1.098h-24.632c-0.606 0.001-1.096 0.492-1.097 1.097v18.67c0.001 0.605 0.491 1.096 1.097 1.097h9.205v3.084h-3.926c-0.282 0-0.511 0.229-0.511 0.511s0.229 0.511 0.511 0.511h10.884c0.282 0 0.511-0.229 0.511-0.511s-0.229-0.511-0.511-0.511h-0.736v-3.084h0.735zM15.503 23.948h-4.18v-3.084h4.179v3.084z"></path>
<path fill="#1575bb" style="fill: var(--color2, #1575bb)" d="M17.26 16.383h-14.707c-0.005-0-0.012-0-0.018-0-0.282 0-0.511 0.229-0.511 0.511s0.229 0.511 0.511 0.511c0.006 0 0.013-0 0.019-0l-0.001 0h14.707c0.282 0 0.511-0.229 0.511-0.511s-0.229-0.511-0.511-0.511v0z"></path>
<path fill="#d91a5d" style="fill: var(--color3, #d91a5d)" d="M30.903 11.617h-11.015c-0.605 0.001-1.096 0.491-1.097 1.097v18.19c0.001 0.605 0.491 1.096 1.097 1.097h11.015c0.605-0.001 1.096-0.491 1.097-1.097v-18.19c-0.001-0.605-0.491-1.096-1.097-1.097h-0zM19.813 14.68h11.166v12.213h-11.166v-12.214zM19.888 12.637h11.015c0.040 0 0.075 0.036 0.075 0.076v0.946h-11.165v-0.946c0-0.040 0.035-0.075 0.075-0.075zM30.903 30.979h-11.015c-0.041-0.001-0.074-0.035-0.075-0.076v-2.989h11.166v2.989c0 0.040-0.036 0.075-0.076 0.075z"></path>
<path fill="#d91a5d" style="fill: var(--color3, #d91a5d)" d="M26.417 28.936h-2.042c-0.282 0-0.511 0.229-0.511 0.511s0.229 0.511 0.511 0.511h2.042c0.282 0 0.511-0.229 0.511-0.511s-0.229-0.511-0.511-0.511v0z"></path>
</symbol>
<symbol id="icon-folder" viewBox="0 0 32 32">
<path d="M31.473 20.652l-1.526-2.188 1.065-7.188c0.014-0.088 0.022-0.19 0.022-0.294 0-1.067-0.835-1.939-1.887-1.998l-0.005-0v-4.176c-0.002-2.036-1.652-3.687-3.689-3.689h-5.99c-1.994 0-3.052 0.842-3.824 1.457-0.621 0.494-0.996 0.792-1.801 0.792h-8.656c-1.812 0-3.287 1.437-3.287 3.203v2.412c-1.058 0.059-1.893 0.932-1.893 1.999 0 0.104 0.008 0.205 0.023 0.305l-0.001-0.011 2.402 16.218c0.148 0.972 0.978 1.709 1.98 1.709 0 0 0 0 0 0h17.349c0.479 1 1.482 1.679 2.644 1.68h2.045c1.613-0.002 2.921-1.309 2.922-2.922v-2.727c1.004-0.101 1.849-0.698 2.293-1.54l0.008-0.016c0.21-0.392 0.333-0.858 0.333-1.352 0-0.626-0.197-1.205-0.533-1.68l0.006 0.009zM4.304 8.98v-2.41c0-0.496 0.445-0.793 0.876-0.793h8.656c1.646 0 2.564-0.73 3.301-1.316 0.68-0.541 1.172-0.933 2.324-0.933h5.99c0.706 0.001 1.277 0.573 1.278 1.279v4.172h-22.426zM29.975 22.843c-0.187 0.353-0.552 0.589-0.972 0.589h-1.537v4.54c0 0.605-0.49 1.096-1.096 1.096h-2.044c-0.605 0-1.096-0.491-1.096-1.096v0-4.54h-1.537c-0.605-0-1.095-0.491-1.095-1.096 0-0.234 0.074-0.452 0.199-0.63l-0.002 0.003 3.655-5.239c0.2-0.285 0.528-0.47 0.899-0.47s0.698 0.184 0.896 0.466l0.002 0.003 3.655 5.239c0.123 0.175 0.197 0.392 0.197 0.627 0 0.185-0.046 0.36-0.127 0.513l0.003-0.006z"></path>
</symbol>
<symbol id="icon-security" viewBox="0 0 32 32">
<path fill="#1575bb" style="fill: var(--color2, #1575bb)" d="M29.409 8.24c-0.016-0.865-0.032-1.68-0.032-2.471 0-0.618-0.502-1.12-1.12-1.12-4.79 0-8.437-1.377-11.477-4.332-0.202-0.196-0.477-0.317-0.781-0.317s-0.58 0.121-0.781 0.318l0-0c-3.040 2.956-6.686 4.332-11.476 4.332-0.618 0-1.12 0.502-1.12 1.12 0 0.79-0.015 1.607-0.032 2.471-0.153 8.040-0.364 19.052 13.043 23.698 0.109 0.039 0.235 0.062 0.367 0.062s0.257-0.023 0.374-0.064l-0.008 0.002c13.407-4.647 13.198-15.658 13.044-23.699zM16 29.691c-11.498-4.176-11.324-13.326-11.17-21.408 0.009-0.485 0.018-0.956 0.025-1.416 4.487-0.189 8.073-1.549 11.145-4.225 3.071 2.676 6.66 4.036 11.146 4.225 0.007 0.46 0.015 0.931 0.025 1.415 0.154 8.083 0.327 17.233-11.171 21.409z"></path>
<path fill="#d91a5d" style="fill: var(--color3, #d91a5d)" d="M19.857 12.109l-5.407 5.406-2.307-2.307c-0.203-0.203-0.483-0.328-0.792-0.328-0.619 0-1.12 0.501-1.12 1.12 0 0.309 0.125 0.589 0.328 0.792l3.099 3.099c0.219 0.218 0.505 0.328 0.793 0.328 0.286 0 0.573-0.109 0.791-0.327l6.198-6.199c0.212-0.204 0.343-0.49 0.343-0.807 0-0.619-0.501-1.12-1.12-1.12-0.317 0-0.603 0.131-0.806 0.343l-0 0z"></path>
</symbol>
<symbol id="icon-settings" viewBox="0 0 32 32">
<path fill="#d91a5d" style="fill: var(--color3, #d91a5d)" d="M20.553 23.046c-0.336-0.202-0.681-0.405-1.027-0.604 0.081-0.692 0.081-1.392 0-2.082 0.651-0.367 0.986-0.567 1.32-0.77l-0.293 0.166c0.391-0.241 0.647-0.667 0.647-1.152 0-0.184-0.037-0.36-0.104-0.519l0.003 0.009-0.736-1.776c-0.209-0.49-0.687-0.827-1.244-0.827-0.113 0-0.223 0.014-0.328 0.040l0.009-0.002c-0.843 0.198-1.23 0.301-1.615 0.407l0.461-0.108c-0.438-0.551-0.921-1.034-1.454-1.458l-0.018-0.014c0.103-0.387 0.203-0.775 0.299-1.154 0.024-0.096 0.038-0.205 0.038-0.318 0-0.557-0.337-1.035-0.819-1.241l-0.009-0.003-1.776-0.735c-0.151-0.064-0.327-0.101-0.511-0.101-0.485 0-0.911 0.256-1.149 0.641l-0.003 0.006c-0.202 0.336-0.405 0.681-0.604 1.027-0.313-0.039-0.674-0.061-1.041-0.061s-0.729 0.022-1.084 0.065l0.043-0.004c-0.367-0.652-0.568-0.987-0.771-1.321l0.166 0.294c-0.241-0.39-0.666-0.647-1.152-0.647-0.184 0-0.36 0.037-0.52 0.104l0.009-0.003-1.776 0.735c-0.49 0.209-0.827 0.687-0.827 1.244 0 0.113 0.014 0.223 0.040 0.328l-0.002-0.009c0.095 0.38 0.195 0.768 0.299 1.153-0.551 0.438-1.034 0.921-1.458 1.454l-0.014 0.018c0.082 0.004-0.304-0.099-0.693-0.198l-0.461-0.1c-0.096-0.024-0.205-0.038-0.318-0.038-0.557 0-1.035 0.337-1.241 0.819l-0.003 0.009-0.735 1.777c-0.064 0.151-0.1 0.327-0.1 0.511 0 0.485 0.256 0.911 0.641 1.148l0.006 0.003c0.336 0.202 0.681 0.405 1.028 0.604-0.039 0.313-0.061 0.674-0.061 1.041s0.022 0.729 0.065 1.084l-0.004-0.043c-0.347 0.199-0.692 0.402-1.028 0.604-0.39 0.241-0.647 0.666-0.647 1.152 0 0.184 0.037 0.36 0.104 0.52l-0.003-0.009 0.736 1.776c0.209 0.49 0.687 0.827 1.244 0.827 0.113 0 0.222-0.014 0.327-0.040l-0.009 0.002c0.848-0.199 1.235-0.302 1.62-0.408l-0.466 0.11c0.438 0.551 0.921 1.034 1.454 1.458l0.018 0.014c-0.104 0.387-0.204 0.775-0.299 1.154-0.024 0.095-0.038 0.205-0.038 0.318 0 0.557 0.337 1.035 0.818 1.241l0.009 0.003 1.776 0.736c0.151 0.064 0.327 0.101 0.511 0.101 0.485 0 0.911-0.256 1.149-0.641l0.003-0.006c0.033-0.032 0.233-0.368 0.43-0.705l0.174-0.322c0.313 0.039 0.674 0.061 1.041 0.061s0.729-0.022 1.084-0.065l-0.043 0.004c0.199 0.345 0.402 0.69 0.604 1.027 0.241 0.39 0.666 0.647 1.152 0.647 0.184 0 0.36-0.037 0.52-0.104l-0.009 0.003 1.776-0.735c0.49-0.209 0.827-0.687 0.827-1.244 0-0.113-0.014-0.223-0.040-0.328l0.002 0.009c-0.201-0.856-0.304-1.242-0.41-1.627l0.111 0.474c0.551-0.438 1.034-0.921 1.458-1.454l0.014-0.018c0.386 0.103 0.774 0.203 1.153 0.299 0.096 0.024 0.205 0.038 0.318 0.038 0.557 0 1.035-0.338 1.241-0.819l0.003-0.009 0.736-1.776c0.063-0.151 0.1-0.326 0.1-0.511 0-0.486-0.256-0.911-0.641-1.149l-0.006-0.003zM19.070 25.865c-0.821-0.194-1.192-0.292-1.561-0.394l0.455 0.107c-0.105-0.030-0.227-0.047-0.352-0.047-0.428 0-0.809 0.201-1.054 0.513l-0.002 0.003c-0.386 0.493-0.817 0.924-1.294 1.298l-0.016 0.012c-0.315 0.247-0.516 0.628-0.516 1.055 0 0.125 0.017 0.246 0.049 0.361l-0.002-0.009c0.1 0.372 0.197 0.744 0.288 1.106l-1.633 0.676c-0.033-0.033-0.224-0.355-0.413-0.678l-0.165-0.307c-0.235-0.406-0.667-0.674-1.162-0.674-0.058 0-0.115 0.004-0.171 0.011l0.007-0.001c-0.614 0.077-1.237 0.077-1.853 0-0.050-0.007-0.107-0.010-0.166-0.010-0.495 0-0.926 0.268-1.158 0.667l-0.003 0.006c-0.192 0.334-0.387 0.665-0.579 0.986l-1.633-0.676c0.091-0.365 0.188-0.737 0.287-1.107 0.030-0.105 0.047-0.227 0.047-0.352 0-0.428-0.201-0.809-0.513-1.054l-0.003-0.002c-0.493-0.386-0.924-0.817-1.298-1.294l-0.012-0.016c-0.247-0.315-0.628-0.516-1.055-0.516-0.125 0-0.246 0.017-0.361 0.049l0.009-0.002c-0.37 0.1-0.742 0.197-1.106 0.288l-0.676-1.633c0.322-0.193 0.653-0.388 0.985-0.578 0.406-0.235 0.674-0.667 0.674-1.162 0-0.058-0.004-0.115-0.011-0.171l0.001 0.007c-0.037-0.278-0.057-0.6-0.057-0.927s0.021-0.648 0.061-0.964l-0.004 0.037c0.007-0.050 0.010-0.107 0.010-0.166 0-0.495-0.268-0.927-0.667-1.158l-0.006-0.003c-0.632-0.356-0.954-0.547-1.274-0.742l0.289 0.163 0.676-1.633c0.364 0.091 0.736 0.188 1.107 0.288 0.106 0.030 0.227 0.047 0.352 0.047 0.428 0 0.809-0.201 1.054-0.513l0.002-0.003c0.386-0.493 0.817-0.924 1.294-1.298l0.016-0.012c0.315-0.247 0.516-0.628 0.516-1.055 0-0.125-0.017-0.246-0.049-0.361l0.002 0.009c0.007 0.092-0.092-0.278-0.188-0.65l-0.1-0.456 1.633-0.676c0.192 0.321 0.387 0.652 0.578 0.985 0.235 0.405 0.667 0.674 1.161 0.674 0.058 0 0.115-0.004 0.172-0.011l-0.007 0.001c0.614-0.077 1.237-0.077 1.854 0 0.050 0.007 0.107 0.010 0.166 0.010 0.495 0 0.926-0.268 1.158-0.667l0.003-0.006c0.191-0.331 0.385-0.663 0.579-0.986l1.633 0.676c-0.195 0.826-0.294 1.197-0.397 1.566l0.109-0.46c-0.141 0.523 0.043 1.076 0.469 1.408 0.493 0.386 0.924 0.817 1.298 1.294l0.012 0.016c0.247 0.315 0.628 0.515 1.055 0.515 0.125 0 0.247-0.017 0.362-0.049l-0.009 0.002c0.37-0.1 0.741-0.196 1.106-0.287l0.676 1.633c-0.321 0.193-0.653 0.388-0.985 0.579-0.405 0.235-0.674 0.667-0.674 1.161 0 0.058 0.004 0.115 0.011 0.171l-0.001-0.007c0.076 0.614 0.076 1.238 0 1.854-0.007 0.050-0.010 0.107-0.010 0.166 0 0.494 0.268 0.926 0.667 1.158l0.006 0.003c0.331 0.191 0.663 0.385 0.986 0.579l-0.676 1.633z"></path>
<path fill="#d91a5d" style="fill: var(--color3, #d91a5d)" d="M15.11 19.532c-0.755-1.783-2.49-3.012-4.513-3.012-0.673 0-1.314 0.136-1.898 0.382l0.032-0.012c-1.783 0.755-3.012 2.491-3.012 4.513 0 0.673 0.136 1.314 0.382 1.897l-0.012-0.032c0.503 1.202 1.44 2.139 2.61 2.63l0.032 0.012c0.602 0.249 1.235 0.374 1.868 0.374 2.696-0.005 4.88-2.191 4.88-4.887 0-0.673-0.136-1.313-0.382-1.897l0.012 0.032zM11.92 24.587c-0.39 0.167-0.844 0.264-1.32 0.264s-0.93-0.097-1.343-0.273l0.022 0.008c-0.849-0.355-1.511-1.017-1.858-1.844l-0.008-0.023c-0.165-0.389-0.261-0.841-0.261-1.316 0-1.904 1.54-3.447 3.442-3.453h0.001c0 0 0 0 0.001 0 1.43 0 2.657 0.869 3.182 2.107l0.009 0.023c0.165 0.389 0.261 0.842 0.261 1.317 0 1.429-0.868 2.655-2.106 3.18l-0.023 0.009z"></path>
<path fill="#1575bb" style="fill: var(--color2, #1575bb)" d="M31.034 6.308c0.012-0.005-0.246-0.043-0.505-0.079l-0.251-0.028c-0.145-0.476-0.319-0.886-0.531-1.274l0.017 0.035c0.156-0.205 0.311-0.41 0.46-0.612 0.137-0.186 0.219-0.42 0.219-0.673 0-0.313-0.126-0.597-0.331-0.804l-0.988-0.988c-0.206-0.204-0.49-0.33-0.803-0.33-0.253 0-0.487 0.083-0.677 0.222l0.003-0.002c-0.202 0.149-0.407 0.304-0.612 0.459-0.352-0.194-0.762-0.369-1.191-0.501l-0.047-0.013c-0.034-0.256-0.070-0.51-0.107-0.757-0.088-0.549-0.557-0.963-1.123-0.966h-1.398c-0.558 0-1.040 0.415-1.123 0.966-0.037 0.247-0.073 0.501-0.107 0.757-0.476 0.145-0.886 0.319-1.274 0.531l0.035-0.017c-0.204-0.156-0.409-0.31-0.612-0.459-0.186-0.137-0.42-0.22-0.673-0.22-0.313 0-0.597 0.126-0.803 0.331l-0.987 0.988c-0.204 0.206-0.331 0.49-0.331 0.803 0 0.253 0.082 0.487 0.222 0.676l-0.002-0.003c0.149 0.202 0.303 0.407 0.459 0.612-0.194 0.352-0.369 0.763-0.501 1.192l-0.013 0.047c-0.256 0.034-0.51 0.070-0.757 0.107-0.549 0.088-0.963 0.557-0.966 1.123v1.398c0 0.557 0.415 1.040 0.966 1.123 0.247 0.037 0.501 0.073 0.757 0.107 0.129 0.429 0.301 0.844 0.513 1.239-0.156 0.205-0.311 0.41-0.46 0.612-0.137 0.186-0.219 0.42-0.219 0.673 0 0.313 0.126 0.597 0.331 0.804l0.988 0.988c0.206 0.204 0.49 0.331 0.803 0.331 0.253 0 0.487-0.082 0.676-0.222l-0.003 0.002c0.202-0.149 0.407-0.304 0.611-0.459 0.395 0.213 0.811 0.384 1.239 0.513 0.034 0.256 0.070 0.51 0.107 0.757 0.088 0.549 0.557 0.964 1.123 0.966h1.397c0.558 0 1.040-0.415 1.123-0.966 0.037-0.247 0.073-0.501 0.107-0.757 0.476-0.145 0.886-0.319 1.273-0.531l-0.035 0.017c0.204 0.156 0.409 0.31 0.612 0.459 0.447 0.331 1.082 0.284 1.476-0.111l0.988-0.988c0.204-0.206 0.331-0.49 0.331-0.803 0-0.253-0.082-0.487-0.222-0.676l0.002 0.003c-0.149-0.201-0.303-0.407-0.459-0.611 0.212-0.395 0.384-0.81 0.513-1.239 0.256-0.034 0.51-0.070 0.757-0.107 0.549-0.088 0.963-0.557 0.965-1.123v-1.397c0-0.558-0.415-1.040-0.966-1.123zM30.639 8.634c-0.224 0.033-0.453 0.064-0.683 0.095-0.457 0.060-0.825 0.385-0.946 0.813l-0.002 0.008c-0.129 0.46-0.299 0.862-0.514 1.235l0.014-0.026c-0.093 0.161-0.148 0.354-0.148 0.56 0 0.262 0.089 0.503 0.238 0.695l-0.002-0.003c0.142 0.183 0.281 0.368 0.417 0.55l-0.713 0.713c-0.3-0.222-0.479-0.359-0.657-0.497l0.107 0.080c-0.189-0.148-0.431-0.237-0.693-0.237-0.206 0-0.399 0.055-0.565 0.151l0.005-0.003c-0.347 0.201-0.748 0.372-1.17 0.492l-0.037 0.009c-0.437 0.123-0.762 0.491-0.821 0.942l-0.001 0.006c-0.030 0.23-0.062 0.459-0.095 0.684h-1.007c-0.033-0.225-0.064-0.454-0.095-0.683-0.060-0.457-0.385-0.824-0.813-0.946l-0.008-0.002c-0.46-0.129-0.862-0.299-1.235-0.514l0.026 0.014c-0.161-0.093-0.354-0.148-0.56-0.148-0.262 0-0.503 0.089-0.695 0.238l0.003-0.002c-0.183 0.141-0.367 0.281-0.55 0.417l-0.713-0.713c0.221-0.298 0.358-0.477 0.496-0.656l-0.078 0.105c0.147-0.189 0.236-0.43 0.236-0.692 0-0.206-0.055-0.399-0.151-0.565l0.003 0.005c-0.201-0.347-0.372-0.748-0.492-1.171l-0.009-0.037c-0.123-0.437-0.491-0.762-0.942-0.821l-0.006-0.001c-0.474-0.058-0.707-0.091-0.94-0.126l0.257 0.032v-1.008c0.224-0.033 0.453-0.064 0.683-0.095 0.457-0.060 0.825-0.385 0.946-0.813l0.002-0.008c0.116-0.422 0.284-0.828 0.501-1.209 0.093-0.161 0.148-0.354 0.148-0.56 0-0.262-0.089-0.503-0.238-0.695l0.002 0.003c-0.060-0.073-0.196-0.252-0.332-0.432l-0.085-0.118 0.713-0.713c0.183 0.137 0.367 0.277 0.55 0.417 0.363 0.279 0.855 0.314 1.252 0.089 0.347-0.201 0.749-0.372 1.172-0.492l0.037-0.009c0.436-0.123 0.761-0.49 0.821-0.941l0.001-0.006c0.030-0.23 0.062-0.459 0.095-0.683h1.008c0.033 0.224 0.064 0.453 0.095 0.683 0.059 0.455 0.382 0.827 0.821 0.948 0.422 0.117 0.828 0.284 1.209 0.501 0.397 0.226 0.888 0.191 1.252-0.088 0.183-0.141 0.367-0.281 0.55-0.417l0.713 0.713c-0.137 0.182-0.276 0.366-0.417 0.55-0.147 0.189-0.236 0.43-0.236 0.692 0 0.206 0.055 0.399 0.151 0.565l-0.003-0.005c0.215 0.38 0.384 0.787 0.5 1.208 0.121 0.439 0.494 0.762 0.948 0.821 0.23 0.031 0.459 0.062 0.683 0.095v1.008z"></path>
<path fill="#1575bb" style="fill: var(--color2, #1575bb)" d="M23.871 5.229c-1.601 0.002-2.899 1.299-2.901 2.9v0c0.002 1.601 1.299 2.899 2.9 2.901h0c1.601-0.002 2.898-1.3 2.9-2.9v-0c-0.002-1.601-1.299-2.898-2.9-2.9h-0zM23.871 9.741c-0.89-0.001-1.611-0.722-1.611-1.611v-0c0.001-0.889 0.722-1.61 1.611-1.611h0c0.889 0.001 1.609 0.722 1.611 1.611v0c-0.001 0.889-0.721 1.61-1.611 1.611h-0z"></path>
</symbol>
<symbol id="icon-star" viewBox="0 0 32 32">
<path fill="#1575bb" style="fill: var(--color2, #1575bb)" d="M30.804 11.341l-9.364-1.362-4.189-8.487c-0.512-1.037-1.99-1.037-2.502 0l-4.189 8.487-9.364 1.362c-1.144 0.166-1.601 1.572-0.773 2.379l6.775 6.605-1.598 9.328c-0.195 1.139 1.001 2.009 2.025 1.47l8.279-4.403 8.377 4.403c1.119 0.539 2.316-0.331 2.12-1.47l-1.598-9.327 6.775-6.606c0.828-0.807 0.372-2.213-0.773-2.379z"></path>
</symbol>
<symbol id="icon-supported" viewBox="0 0 30 32">
<path fill="#1575bb" style="fill: var(--color2, #1575bb)" d="M2.565 13.303c0 0 0 0 0 0 1.049 0 1.949-0.635 2.337-1.542l0.006-0.017c1.634-3.894 5.477-6.638 9.957-6.638 2.469 0 4.732 0.846 6.547 2.25l-1.423 0.22c-0.536 0.084-0.941 0.543-0.941 1.097 0 0.449 0.266 0.835 0.649 1.010l0.007 0.003 7.823 3.519c0.133 0.061 0.289 0.097 0.454 0.097 0.611 0 1.107-0.494 1.111-1.104v-0l0.041-8.619c0-0.002 0-0.005 0-0.007 0-0.613-0.497-1.109-1.109-1.109-0.384 0-0.723 0.195-0.922 0.492l-0.003 0.004-1.078 1.62c-2.863-2.83-6.801-4.579-11.147-4.579-0.003 0-0.006 0-0.010 0h0.001c-6.586 0-12.247 4.021-14.662 9.738-0.129 0.295-0.203 0.639-0.203 1.001 0 1.416 1.148 2.565 2.564 2.565h0z"></path>
<path fill="#d91a5d" style="fill: var(--color3, #d91a5d)" d="M29.304 19.675c-0.466-0.697-1.25-1.149-2.139-1.149-0 0-0 0-0 0h0c-1.048 0-1.948 0.635-2.336 1.542l-0.006 0.017c-1.635 3.893-5.477 6.638-9.957 6.638-2.47 0-4.733-0.847-6.548-2.25l1.423-0.22c0.536-0.084 0.941-0.543 0.941-1.097 0-0.449-0.266-0.835-0.649-1.010l-0.007-0.003-7.823-3.52c-0.133-0.061-0.289-0.097-0.454-0.097-0.611 0-1.107 0.494-1.111 1.104v0l-0.041 8.62c0 0.002-0 0.005-0 0.007 0 0.613 0.497 1.109 1.109 1.109 0.384 0 0.722-0.195 0.922-0.492l0.003-0.004 1.078-1.622c2.863 2.831 6.801 4.58 11.148 4.58 0.003 0 0.006 0 0.010 0h-0.001c6.585 0 12.247-4.022 14.662-9.738 0.129-0.295 0.203-0.639 0.203-1.001 0-0.527-0.159-1.018-0.432-1.425l0.006 0.009z"></path>
</symbol>
<symbol id="icon-background" viewBox="0 0 66 32">
<path fill="#111" style="fill: var(--color1, #111)" d="M23.065 8s-1.012-0.839-0.925-2.92c0.087-2.082 2.399-2.312 3.325-1.907 0 0-0.608-2.233 1.445-2.977s3.121 0.809 3.41 1.676c0 0 1.85-2.082 4.018-1.041s2.832 3.179 1.504 4.394-3.296 1.737-4.394 1.793c-1.098 0.056-4.018-0.578-4.59-1.475 0 0-0.058 1.417-0.896 2.082s-2.897 0.376-2.897 0.376z"></path>
<path fill="#111" style="fill: var(--color1, #111)" d="M29.701 7.555c0.036-0.008 0.078-0.013 0.121-0.013 0.134 0 0.258 0.047 0.354 0.126l-0.001-0.001c0.124 0.105 0.202 0.26 0.202 0.434v0c0 0.031 0.025 0.056 0.056 0.056s0.056-0.025 0.056-0.056v0c0-0.001 0-0.003 0-0.005 0-0.21-0.097-0.397-0.249-0.52l-0.001-0.001c-0.113-0.091-0.258-0.146-0.416-0.146-0.054 0-0.106 0.006-0.156 0.018l0.005-0.001c-0.071 0.015-0.041 0.124 0.030 0.108zM27.701 7.287c-0.074-0.035-0.16-0.064-0.249-0.083l-0.008-0.001c-0.025-0.004-0.053-0.006-0.083-0.006-0.068 0-0.134 0.012-0.194 0.033l0.004-0.001c-0.177 0.063-0.329 0.15-0.463 0.259l0.003-0.002c-0.056 0.045 0.024 0.124 0.079 0.078 0.117-0.095 0.253-0.172 0.401-0.224l0.010-0.003c0.047-0.018 0.101-0.028 0.158-0.028 0.028 0 0.056 0.003 0.083 0.008l-0.003-0c0.080 0.018 0.158 0.045 0.232 0.079 0.004 0.001 0.009 0.002 0.015 0.002 0.026 0 0.048-0.017 0.055-0.041l0-0c0.001-0.004 0.001-0.008 0.001-0.012 0-0.026-0.017-0.048-0.041-0.056l-0-0zM27.605 8.765c-0.007 0.019-0.011 0.041-0.011 0.064 0 0.036 0.010 0.070 0.028 0.099l-0-0.001c0.029 0.048 0.078 0.082 0.134 0.091l0.001 0c0.013 0.002 0.027 0.004 0.042 0.004 0.094 0 0.175-0.055 0.213-0.134l0.001-0.001c0.018-0.038 0.028-0.083 0.028-0.13 0-0.075-0.026-0.144-0.071-0.198l0 0.001c-0.097-0.107-0.248-0.021-0.318 0.067-0.052 0.055-0.083 0.129-0.083 0.21 0 0.044 0.009 0.085 0.026 0.123l-0.001-0.002c0.025 0.052 0.069 0.092 0.123 0.111l0.002 0c0.020 0.007 0.043 0.011 0.068 0.011 0.036 0 0.070-0.009 0.1-0.025l-0.001 0.001c0.098-0.068 0.162-0.179 0.163-0.305v-0c0-0.003 0-0.007 0-0.011 0-0.059-0.023-0.113-0.060-0.153l0 0c-0.040-0.043-0.095-0.070-0.158-0.072h-0c-0.123 0.021-0.217 0.122-0.226 0.247l-0 0.001c-0.008 0.025-0.012 0.053-0.012 0.083 0 0.103 0.054 0.194 0.135 0.245l0.001 0.001c0.021 0.010 0.046 0.016 0.072 0.016 0.038 0 0.072-0.012 0.101-0.032l-0 0c0.045-0.037 0.079-0.085 0.097-0.14l0.001-0.002c0.017-0.041 0.027-0.088 0.027-0.138 0-0.019-0.001-0.037-0.004-0.055l0 0.002c-0.004-0.066-0.049-0.121-0.111-0.139l-0.001-0c-0.003-0-0.006-0-0.009-0-0.068 0-0.128 0.034-0.164 0.085l-0 0.001c-0.042 0.042-0.072 0.094-0.088 0.153l-0.001 0.002c-0.003 0.010-0.005 0.022-0.005 0.034 0 0.053 0.035 0.097 0.084 0.111l0.001 0c0.009 0.001 0.020 0.002 0.031 0.002 0.053 0 0.102-0.020 0.138-0.053l-0 0c0.044-0.034 0.073-0.085 0.078-0.143l0-0.001c0-0.005 0.001-0.011 0.001-0.017 0-0.053-0.021-0.102-0.054-0.138l0 0c-0.023-0.020-0.053-0.032-0.086-0.032-0.028 0-0.054 0.009-0.075 0.024l0-0c-0.040 0.032-0.071 0.074-0.089 0.122l-0.001 0.002c-0.011 0.019-0.017 0.041-0.017 0.065 0 0.041 0.019 0.077 0.048 0.101l0 0c0.021 0.013 0.047 0.020 0.074 0.020s0.053-0.008 0.074-0.021l-0.001 0c0.048-0.033 0.080-0.085 0.084-0.146l0-0.001c0.009-0.055 0.017-0.124-0.031-0.165-0.014-0.012-0.033-0.019-0.053-0.019-0.016 0-0.030 0.004-0.043 0.012l0-0c-0.027 0.018-0.048 0.043-0.060 0.072l-0 0.001c-0.029 0.053-0.050 0.114-0.059 0.18l-0 0.003c-0.004 0.012-0.006 0.025-0.006 0.039 0 0.024 0.006 0.046 0.017 0.066l-0-0.001c0.015 0.021 0.040 0.034 0.067 0.034 0.009 0 0.018-0.001 0.026-0.004l-0.001 0c0.058-0.020 0.104-0.066 0.124-0.123l0-0.001c0.015-0.034 0.024-0.074 0.024-0.116 0-0.020-0.002-0.040-0.006-0.059l0 0.002c-0.007-0.024-0.028-0.041-0.054-0.041-0.005 0-0.010 0.001-0.015 0.002l0-0c-0.052 0.022-0.11 0.060-0.098 0.124 0.007 0.041 0.042 0.072 0.085 0.072 0 0 0 0 0 0h-0c0.014-0 0.027-0.004 0.039-0.010 0.061-0.039 0-0.135-0.057-0.097 0.005-0.002 0.010-0.004 0.016-0.004 0.009 0 0.018 0.004 0.024 0.010v0 0.025l0.022-0.014-0.070-0.038c0.002 0.009 0.003 0.019 0.003 0.030 0 0.039-0.013 0.075-0.034 0.104l0-0.001c-0.005 0.007-0.011 0.013-0.017 0.019h-0.009c0.002-0.001 0.004-0.002 0.006-0.002 0 0 0 0 0 0v0c0.002 0 0.004 0.001 0.006 0.002 0 0 0.024 0.015 0.017 0.017 0-0.004 0-0.009 0-0.014s-0-0.010-0.001-0.014l0 0.001c0.004-0.026 0.010-0.048 0.016-0.070l-0.001 0.004c0.012-0.039 0.029-0.076 0.050-0.11 0 0.009-0.037 0-0.027 0-0.010-0.006-0.010-0.019-0.009 0 0 0 0.001 0.019 0 0 0 0.002 0 0.004 0 0.006s-0 0.004-0.001 0.006l0-0c-0.001 0.011-0.001 0.021 0 0.032-0.001 0.030-0.011 0.059-0.030 0.082-0.007 0 0 0 0 0h-0.007c-0.015 0-0.007 0 0 0h-0.015s0.004 0 0 0c0 0 0 0.007 0 0 0.004-0.017 0.010-0.033 0.016-0.048 0.009-0.027 0.026-0.050 0.048-0.066h0.010c0.004 0 0.012 0.009 0.007 0 0.005 0.004 0.010 0.010 0.012 0.016 0.004 0.009 0.006 0.020 0.006 0.031v0c0 0.013-0.002 0.025-0.007 0.037-0.017 0.038-0.050 0.065-0.091 0.073l-0.001 0h-0.017v-0.007 0.010l0.007-0.015c0.005-0.012 0.012-0.022 0.019-0.031l-0 0c0.020-0.033 0.046-0.061 0.077-0.083 0 0 0.019-0.011 0.025-0.010s0.015 0.019 0.019 0.027c0.004 0.017 0.006 0.037 0.006 0.058 0 0.059-0.019 0.114-0.052 0.159l0.001-0.001c-0.012 0.024-0.036 0.041-0.064 0.041-0.025 0-0.047-0.013-0.060-0.033l-0-0c-0.022-0.037-0.035-0.082-0.035-0.129 0-0.033 0.006-0.065 0.018-0.095l-0.001 0.002c0.007-0.036 0.026-0.068 0.053-0.093 0.017-0.016 0.041-0.025 0.066-0.025 0.003 0 0.006 0 0.009 0l-0-0c0.062 0.010 0.089 0.082 0.083 0.144-0.006 0.073-0.042 0.136-0.094 0.179l-0 0c-0.015 0.012-0.034 0.019-0.055 0.019-0.007 0-0.013-0.001-0.019-0.002l0.001 0c-0.027-0.007-0.050-0.024-0.064-0.047l-0-0c-0.016-0.025-0.025-0.055-0.025-0.087 0-0.036 0.012-0.069 0.031-0.096l-0 0c0.029-0.050 0.092-0.124 0.155-0.118 0.022 0 0.038 0.032 0.047 0.053 0.012 0.032 0.018 0.065 0.016 0.099-0.002 0.031-0.012 0.059-0.028 0.084l0-0.001c-0.013 0.020-0.031 0.036-0.053 0.046l-0.001 0h-0.088c-0.011 0 0 0 0 0h-0.020s-0.014-0.015-0.009-0.009c-0.011-0.015-0.018-0.033-0.018-0.053 0-0.013 0.003-0.024 0.007-0.035l-0 0.001c0.001-0.004 0.002-0.009 0.002-0.015 0-0.026-0.017-0.047-0.040-0.055l-0-0c-0.004-0.001-0.009-0.002-0.014-0.002-0.026 0-0.048 0.017-0.056 0.041l-0 0-0.004-0.016zM29.76 8.896c-0.008 0.029-0.012 0.062-0.012 0.096s0.004 0.067 0.013 0.099l-0.001-0.003c0.018 0.060 0.068 0.105 0.129 0.116l0.001 0c0.009 0.002 0.018 0.002 0.028 0.002 0.055 0 0.103-0.026 0.133-0.067l0-0c0.035-0.047 0.057-0.107 0.057-0.171v-0c0-0.004 0-0.008 0-0.013 0-0.047-0.014-0.092-0.038-0.129l0.001 0.001c-0.025-0.037-0.068-0.062-0.115-0.062-0.016 0-0.030 0.003-0.044 0.007l0.001-0c-0.061 0.023-0.106 0.073-0.124 0.135l-0 0.001c-0.013 0.034-0.021 0.073-0.021 0.114 0 0.024 0.003 0.047 0.007 0.069l-0-0.002c0.016 0.062 0.071 0.107 0.137 0.107 0.001 0 0.001 0 0.002 0h-0c0.032-0.005 0.060-0.018 0.083-0.036l-0 0c0.024-0.019 0.044-0.043 0.056-0.071 0.022-0.040 0.035-0.089 0.035-0.14 0-0.006-0-0.012-0.001-0.019l0 0.001c-0.002-0.061-0.027-0.115-0.066-0.156l0 0c-0.022-0.020-0.051-0.032-0.083-0.032-0.036 0-0.069 0.016-0.092 0.041l-0 0c-0.038 0.050-0.060 0.11-0.063 0.172-0.007 0.059 0.008 0.118 0.041 0.167 0.018 0.027 0.046 0.045 0.079 0.049l0.001 0c0.004 0.001 0.009 0.001 0.015 0.001 0.029 0 0.055-0.011 0.075-0.028l-0 0c0.021-0.019 0.038-0.042 0.050-0.068 0.016-0.030 0.026-0.062 0.030-0.096 0-0.003 0-0.007 0-0.011 0-0.060-0.035-0.111-0.085-0.135l-0.001-0c-0.013-0.005-0.028-0.008-0.043-0.008-0.049 0-0.092 0.029-0.112 0.070l-0 0.001c-0.006 0.014-0.009 0.029-0.009 0.046 0 0.048 0.027 0.089 0.067 0.11l0.001 0c0.016 0.008 0.035 0.013 0.055 0.013 0.013 0 0.025-0.002 0.037-0.006l-0.001 0c0.024-0.007 0.041-0.029 0.041-0.055 0-0.005-0.001-0.010-0.002-0.015l0 0c-0.007-0.024-0.028-0.040-0.054-0.040-0.005 0-0.010 0.001-0.015 0.002l0-0c-0.016 0 0 0 0 0h-0.009s0.012 0 0 0c0 0 0.011 0.007 0 0h-0.007s0.011 0.007 0 0c0 0 0.009 0 0 0s0 0.006 0 0c0-0.007 0-0.006 0 0 0-0.012 0 0.006 0 0v-0.007c-0.007 0.007 0 0 0 0-0.010 0 0 0 0 0s0.010 0.012 0 0c-0 0.001-0 0.003-0 0.004s0 0.003 0 0.005l-0-0s0.006 0.011 0 0c-0 0.002-0 0.004-0 0.006s0 0.004 0 0.006l-0-0c0-0.009 0 0 0 0v0.016s0 0.009 0 0c-0.003 0.015-0.009 0.029-0.016 0.042l0-0.001-0.015 0.025s-0.010 0.014 0 0.007l-0.009 0.009s0.006 0 0 0c-0.007 0 0.015 0 0 0-0.012-0.010 0 0 0 0v-0.007c-0.010-0.009 0 0 0 0s0-0.011-0.009-0.016c-0.009-0.005 0-0.009 0-0.011v-0.016c-0.002-0.010-0.003-0.021-0.003-0.033s0.001-0.023 0.003-0.034l-0 0.001s0 0.009 0 0c0-0.002 0-0.004 0-0.007s-0-0.005-0-0.007l0 0c0.003-0.012 0.006-0.022 0.009-0.031l-0.001 0.002v-0.014c0-0.005 0 0 0 0l0.007-0.015s0.010-0.015 0-0.006c-0.010 0.009 0-0.006 0.006-0.009 0 0 0.006-0.002 0 0 0 0 0.010 0 0 0s0 0 0 0c0.001-0 0.003-0 0.004-0s0.003 0 0.004 0l-0-0c0.005 0.007 0.009 0.015 0.012 0.022v0.014c0.001 0.007 0.001 0.015 0 0.022 0 0 0 0.019 0 0 0 0.002 0 0.005 0 0.008s-0 0.006-0 0.008l0-0v0.036s0 0.010 0 0c0.001 0.008 0.001 0.016 0 0.024v0.011c0-0.009 0 0.016 0 0-0.004 0.008-0.008 0.015-0.012 0.022v0.009c-0.009 0.014 0.006 0 0 0-0.005 0.006-0.010 0.012-0.016 0.017l-0 0c-0.015 0.007 0 0 0 0 0.015-0.007-0.015 0-0.007 0-0.014 0 0.007 0 0 0h-0.010s0.011 0 0 0c-0.011-0.014 0 0 0 0 0-0.001 0-0.003 0-0.004s-0-0.003-0.001-0.004l0 0c-0.002-0.010-0.003-0.023-0.003-0.035 0-0.024 0.004-0.047 0.011-0.069l-0 0.002c0.003-0.011 0.006-0.021 0.009-0.030l-0.001 0.002s0.006-0.016 0 0c-0-0.002-0-0.004-0-0.006s0-0.004 0-0.007l-0 0c0.002-0.004 0.004-0.007 0.006-0.010l-0 0c0.007-0.012 0 0 0-0.006l0.007-0.007c-0.006 0.006 0 0 0.006 0s0.016-0.007 0 0h0.022c-0.010-0.006 0.007 0 0 0h0.007c-0.012-0.007 0 0 0 0 0-0.010 0 0 0 0v0.007s0.007 0.015 0 0c-0.007-0.015 0 0.006 0 0.009s0 0.007 0 0.011-0 0.008-0 0.012l0-0.001v0.015c0.001 0.008 0.001 0.017 0 0.025-0 0.002-0 0.005-0 0.007s0 0.005 0 0.008l-0-0v0.009s0 0.009 0 0c-0.003 0.019-0.009 0.036-0.017 0.052l0-0.001c0 0.002 0 0.004 0 0.006s-0 0.004-0.001 0.006l0-0v0.007l-0.007 0.009h-0.006c-0.004 0.003-0.008 0.006-0.013 0.009l-0 0h-0.016c-0.006 0-0.006 0 0 0h-0.009c-0.012 0 0 0 0 0h-0.015l-0.007-0.007c-0.009-0.009 0 0 0 0l-0.009-0.014c-0.007-0.012 0 0.009 0 0-0.006-0.015-0.009-0.033-0.009-0.051 0-0.002 0-0.004 0-0.006v0c-0.001-0.011-0.001-0.023-0.001-0.035s0-0.025 0.001-0.037l-0 0.002c0.001-0.004 0.002-0.010 0.002-0.015 0-0.031-0.025-0.056-0.056-0.056-0.026 0-0.047 0.017-0.054 0.041l-0 0 0.026 0.002zM28.764 9.345c0.053 0.445 0.079 0.893 0.077 1.341 0 0.005 0 0.010 0 0.016 0 0.101-0.021 0.197-0.058 0.284l0.002-0.005c-0.041 0.093-0.132 0.157-0.238 0.157-0.011 0-0.022-0.001-0.032-0.002l0.001 0c-0.237-0.009-0.457-0.071-0.652-0.174l0.008 0.004c-0.063-0.032-0.124 0.063-0.056 0.097 0.199 0.105 0.433 0.172 0.681 0.185l0.004 0c0.013 0.002 0.029 0.003 0.045 0.003 0.086 0 0.166-0.028 0.23-0.075l-0.001 0.001c0.075-0.068 0.128-0.158 0.151-0.26l0.001-0.003c0.038-0.246 0.042-0.497 0.011-0.744-0.016-0.323-0.038-0.608-0.068-0.89l0.006 0.067c-0.007-0.071-0.124-0.072-0.112 0zM27.055 11.466c0.095 0.246 0.258 0.448 0.466 0.589l0.004 0.003c0.096 0.062 0.213 0.098 0.339 0.098s0.243-0.037 0.342-0.1l-0.003 0.002c0.058-0.042 0-0.139-0.056-0.097-0.081 0.052-0.179 0.083-0.285 0.083-0.116 0-0.223-0.037-0.311-0.1l0.002 0.001c-0.18-0.136-0.319-0.317-0.4-0.528l-0.003-0.008c-0.030-0.065-0.124-0.009-0.096 0.057z"></path>
<path fill="#000" style="fill: var(--color2, #000)" d="M22.755 13.809c0.011-0.020 2.001 1.358 3.388 2.79s1.301 1.387 1.388 1.43c0.087 0.044 0.837-1.011 1.054-2.399s0.201-1.737 0.201-1.737 0.551 0.176 0.579 1.578c0.029 1.402-0.607 3.408-0.91 4.811s0.030 7.17 0.030 7.17h-0.665s-1.156-5.968-2.588-8.426c-1.431-2.457-2.645-4.26-2.645-4.26s-0.138-0.433 0-0.672c0.138-0.239 0.167-0.285 0.167-0.285zM18.377 15.903c-0.104 0.082-0.841 0.445-1.535 0.935l-0.693 0.496s2.182 1.213 3.945 1.95c1.763 0.737 3.831 0.794 3.831 0.794s-3.064-1.472-4.307-2.585c-1.243-1.113-1.241-1.59-1.241-1.59zM32.308 16.428c0.124 0.047 0.832 1.587 0.832 1.587s-1.944 1.556-2.307 1.693c-0.1 0.046-0.217 0.073-0.341 0.073-0.091 0-0.178-0.014-0.259-0.041l0.006 0.002s1.271-1.371 1.631-2.247l0.438-1.067z"></path>
<path fill="#000" style="fill: var(--color2, #000)" d="M13.248 26.724v4.303s0.347 0.888 1.009 0.888h3.209c0.389-0.111 0.673-0.454 0.693-0.866l0-0.002v-4.323h-4.911z"></path>
<path fill="#000" style="fill: var(--color2, #000)" d="M26.923 26.702s-0.737 0.206-0.856 2.19-0.124 2.941-0.124 2.941v0.082h15.134v-1.538l-13.452 0.043s-0.248-1.789-0.044-2.31l0.13-0.412-0.789-0.996z"></path>
<path fill="#000" style="fill: var(--color2, #000)" d="M37.113 10.386h23.283s0.488-0.019 0.531 0.588c0.043 0.607 0 15.522 0 15.522 0.004 0.024 0.007 0.052 0.007 0.081 0 0.113-0.038 0.217-0.101 0.301l0.001-0.001c-0.081 0.106-0.201 0.178-0.338 0.194l-0.002 0h-5.745l1.041 4.368s0.055 0.455-0.372 0.52c-0.427 0.064-13.69 0-13.69 0v-1.538h7.479l-0.053-3.187h-11.865c-0.353-0.013-0.642-0.276-0.694-0.616l-0.001-0.004c-0.124-0.62 0-15.544 0-15.544 0.003-0.193 0.086-0.366 0.217-0.488l0-0c0.087-0.078 0.187-0.144 0.297-0.192l0.007-0.003z"></path>
<path fill="#000" style="fill: var(--color2, #000)" d="M35.329 29.476s-0.922-1.778 0.066-2.872c0.987-1.094 1.279-1.018 1.279-1.018l0.392 1.3s-0.737 0.124-0.975 1.334c-0.238 1.209-0.283 1.613-0.283 1.613s-0.429-0.239-0.479-0.356zM39.346 27.193c0.011 0.040 0.227 1.633 0.174 2.115s-0.066 0.547-0.055 0.483c0.011-0.064 0.444-0.62 0.62-1.301 0.069-0.317 0.109-0.681 0.109-1.054 0-0.167-0.008-0.332-0.023-0.495l0.002 0.021z"></path>
<path fill="#000" style="fill: var(--color2, #000)" d="M47.986 4.361h-3.036v0.629h3.036v-0.629zM48.255 4.362v0.629h0.304v-0.629h-0.304zM52.159 4.361h-3.241v0.629h3.241v-0.629zM50.262 5.445h-5.312v0.705h5.312v-0.705zM54.434 5.445h-3.588v0.661h3.588v-0.661zM55.14 5.445h-0.391v0.661h0.391v-0.661zM50.907 6.431h-4.914v0.55h4.914v-0.55zM54.131 6.431h-2.624v0.55h2.624v-0.55zM48.256 7.32h-3.306v0.563h3.306v-0.563z"></path>
</symbol>
<symbol id="icon-drive" viewBox="0 0 36 32">
<path d="M11.814 1.295l5.050 8.885-11.913 20.508-4.951-9.056 11.814-20.337zM7.339 31.232l23.578-0.006 5.35-9.109h-23.633l-5.295 9.116zM35.996 19.831l-11.578-19.034-10.202-0.030 10.987 19.081 10.795-0.017z"></path>
</symbol>
<symbol id="icon-dropbox" viewBox="0 0 32 32">
<path d="M22.325 24.691l-6.325-4.759-6.193 4.755-3.601-2.112v2.304l9.794 6.475 9.818-6.432v-2.308l-3.494 2.076zM32 6.622l-9.446-5.976-6.554 5.391 9.803 5.698 6.197-5.112z"></path>
<path d="M0 16.998l9.719 5.698 6.281-4.823-9.306-5.92-6.694 5.045zM9.719 0.646l-9.719 6.268 6.694 5.039 9.306-5.916-6.281-5.391zM16 17.873l6.409 4.823 9.591-5.698-6.197-5.263-9.803 6.138z"></path>
</symbol>
<symbol id="icon-link" viewBox="0 0 32 32">
<path d="M24.24 17.538l5.938-5.938c1.126-1.129 1.822-2.686 1.822-4.407s-0.696-3.278-1.822-4.407l0 0-0.967-0.965c-1.129-1.126-2.686-1.822-4.407-1.822s-3.278 0.696-4.407 1.822l-5.936 5.938c-1.125 1.125-1.822 2.68-1.822 4.398 0 0.177 0.007 0.352 0.022 0.526l-0.002-0.023c-0.151-0.013-0.326-0.020-0.504-0.020-1.717 0-3.272 0.696-4.397 1.822l-5.938 5.938c-1.126 1.129-1.822 2.686-1.822 4.407s0.696 3.278 1.822 4.407l0.964 0.964c1.129 1.126 2.686 1.822 4.407 1.822s3.278-0.696 4.407-1.822l5.938-5.938c1.125-1.125 1.822-2.68 1.822-4.397 0-0.177-0.007-0.353-0.022-0.526l0.002 0.023c0.151 0.013 0.326 0.020 0.504 0.020 1.717 0 3.272-0.696 4.397-1.822v0zM15.44 22.142l-5.938 5.938c-0.591 0.59-1.407 0.955-2.309 0.955s-1.717-0.365-2.309-0.955l-0.964-0.965c-0.59-0.591-0.955-1.407-0.955-2.309s0.365-1.717 0.955-2.309l5.938-5.938c0.591-0.59 1.408-0.955 2.309-0.955 0.616 0 1.193 0.171 1.685 0.467l-0.015-0.008-2.462 2.462c-0.302 0.273-0.491 0.666-0.491 1.104 0 0.821 0.665 1.486 1.486 1.486 0.437 0 0.831-0.189 1.103-0.49l0.001-0.001 2.462-2.462c0.288 0.477 0.458 1.053 0.458 1.669 0 0.901-0.365 1.717-0.954 2.308l0-0zM18.162 15.936l2.462-2.462c0.268-0.268 0.435-0.639 0.435-1.049 0-0.819-0.664-1.484-1.484-1.484-0.41 0-0.781 0.166-1.049 0.435l-2.462 2.462c-0.288-0.477-0.458-1.053-0.458-1.669 0-0.901 0.365-1.717 0.954-2.308l5.938-5.941c0.591-0.59 1.407-0.955 2.309-0.955s1.717 0.365 2.309 0.955l-0-0 0.965 0.967c0.59 0.591 0.955 1.407 0.955 2.309s-0.365 1.717-0.955 2.309l-5.938 5.934c-0.591 0.59-1.407 0.955-2.309 0.955-0.616 0-1.193-0.171-1.685-0.467l0.015 0.008z"></path>
</symbol>
</defs>
</svg>
